<?xml version="1.0" standalone="no"?>
<!DOCTYPE svg PUBLIC "-//W3C//DTD SVG 20010904//EN"
 "http://www.w3.org/TR/2001/REC-SVG-20010904/DTD/svg10.dtd">
<svg version="1.0" xmlns="http://www.w3.org/2000/svg"
 width="260.000000pt" height="260.000000pt" viewBox="0 0 260.000000 260.000000"
 preserveAspectRatio="xMidYMid meet">
<metadata>
Created by potrace 1.11, written by Peter Selinger 2001-2013
</metadata>
<g transform="translate(0.000000,260.000000) scale(0.100000,-0.100000)"
fill="#000000" stroke="none">
<path d="M1780 2450 c-305 -4 -777 -8 -1048 -9 -545 -1 -538 0 -587 -65 l-27
-36 -4 -362 c-2 -200 -6 -726 -9 -1170 l-5 -808 146 0 c135 0 146 1 139 18
-26 60 -34 92 -33 132 0 25 2 36 4 25 21 -103 28 -127 45 -149 11 -14 25 -26
31 -26 6 0 4 8 -5 18 -30 33 -47 91 -48 159 0 47 -3 62 -9 48 -8 -18 -9 -18
-9 6 -1 43 50 131 97 166 49 37 91 51 183 59 95 9 145 -17 203 -106 24 -36 48
-80 55 -99 19 -58 14 -140 -14 -198 l-24 -53 817 0 817 0 -2 1072 c-2 634 -7
1119 -13 1187 -14 153 -32 185 -105 193 -22 3 -290 1 -595 -2z m-746 -859 c19
-21 66 -22 103 -3 41 22 44 12 9 -31 -36 -44 -96 -164 -96 -192 0 -8 -4 -15
-10 -15 -5 0 -10 -7 -10 -15 0 -8 -9 -24 -19 -34 -24 -24 -58 -17 -67 13 -3
11 -24 39 -45 61 l-39 41 31 49 c35 55 109 145 119 145 4 0 15 -9 24 -19z
m390 5 c72 -30 134 -153 157 -309 10 -65 9 -87 -6 -145 -33 -133 -110 -228
-208 -257 -97 -29 -137 -17 -207 62 -67 75 -93 142 -98 248 -9 200 74 371 196
403 55 15 128 14 166 -2z m117 -33 c12 -21 24 -40 26 -42 1 -2 11 3 20 11 10
8 39 27 65 42 l47 27 11 -22 c15 -27 60 -159 60 -174 0 -16 -73 -55 -102 -55
-13 0 -30 6 -37 13 -11 10 -13 7 -9 -15 10 -53 -9 -28 -37 50 -16 42 -41 103
-57 134 -31 63 -32 68 -19 68 5 0 20 -17 32 -37z m817 -133 c-7 -10 -14 -17
-17 -15 -4 4 18 35 25 35 2 0 -1 -9 -8 -20z m100 0 c21 -20 21 -26 21 -330 0
-294 -1 -311 -19 -327 -10 -9 -17 -19 -15 -23 2 -3 -12 -4 -30 -2 -64 8 -67
18 -69 244 0 112 1 252 4 312 5 98 8 110 29 127 30 24 52 24 79 -1z m-848
-330 c0 -26 -13 -64 -40 -115 l-40 -76 24 -32 c40 -53 58 -108 63 -192 5 -76
3 -83 -29 -145 -18 -35 -49 -77 -70 -93 -45 -36 -128 -57 -229 -57 -128 0
-215 60 -259 178 -11 29 -20 72 -20 96 0 55 31 145 70 202 l30 45 -20 29 c-32
45 -60 112 -59 145 0 25 5 18 36 -45 27 -55 57 -94 111 -148 67 -67 73 -75 59
-90 -24 -27 -30 -68 -17 -122 14 -60 56 -100 104 -100 68 0 90 51 80 185 l-6
90 36 19 c21 11 53 37 73 59 39 44 85 138 82 171 -2 30 0 36 11 36 6 0 10 -18
10 -40z"/>
</g>
</svg>
